<?xml version="1.0" standalone="no"?>
<!DOCTYPE svg PUBLIC "-//W3C//DTD SVG 20010904//EN"
 "http://www.w3.org/TR/2001/REC-SVG-20010904/DTD/svg10.dtd">
<svg version="1.0" xmlns="http://www.w3.org/2000/svg"
 width="523.000000pt" height="461.000000pt" viewBox="0 0 523.000000 461.000000"
 preserveAspectRatio="xMidYMid meet">

<g transform="translate(0.000000,461.000000) scale(0.100000,-0.100000)"
fill="#000000" stroke="none">
<path d="M3143 3500 c-38 -23 -42 -48 -12 -81 l21 -24 -5 23 c-4 15 0 22 10
22 10 0 12 6 8 19 -7 24 22 43 53 34 28 -7 38 -44 21 -82 -11 -25 -15 -27 -25
-14 -9 14 -12 12 -16 -10 -6 -34 18 -37 50 -7 37 35 23 107 -25 129 -33 15
-43 14 -80 -9z"/>
<path d="M3962 3439 c-23 -9 -39 -35 -28 -46 4 -4 13 3 21 14 18 26 52 20 66
-11 8 -20 9 -20 6 3 -3 32 -35 52 -65 40z"/>
<path d="M3993 3363 c-7 -2 -13 -11 -13 -18 0 -14 17 -15 38 -2 27 18 8 34
-25 20z"/>
<path d="M3700 3345 c-6 -8 -9 -19 -5 -25 10 -16 45 7 39 25 -8 19 -18 19 -34
0z"/>
<path d="M2365 3060 c-19 -21 -19 -21 7 -11 18 7 29 6 38 -2 9 -9 11 -8 8 8
-5 27 -31 30 -53 5z"/>
<path d="M2158 3033 c6 -2 18 -2 25 0 6 3 1 5 -13 5 -14 0 -19 -2 -12 -5z"/>
<path d="M2278 2993 c7 -3 16 -2 19 1 4 3 -2 6 -13 5 -11 0 -14 -3 -6 -6z"/>
<path d="M3740 2965 c-13 -14 -28 -25 -32 -25 -5 0 -28 -13 -51 -28 -52 -35
-89 -51 -141 -62 -23 -5 -58 -15 -78 -22 l-38 -14 28 -21 c24 -17 31 -18 57
-7 38 16 132 18 175 3 28 -10 34 -9 42 5 21 38 146 9 198 -46 l20 -22 1 22 c2
32 3 34 24 66 17 26 17 29 2 38 -9 5 -17 14 -17 20 0 6 -8 17 -17 25 -30 24
-136 93 -143 93 -3 0 -17 -11 -30 -25z"/>
<path d="M2617 2929 c4 -13 8 -18 11 -10 2 7 -1 18 -6 23 -8 8 -9 4 -5 -13z"/>
<path d="M2539 2863 c-13 -16 -12 -17 4 -4 16 13 21 21 13 21 -2 0 -10 -8 -17
-17z"/>
<path d="M2410 2806 c0 -2 8 -10 18 -17 15 -13 16 -12 3 4 -13 16 -21 21 -21
13z"/>
<path d="M2627 2758 c8 -47 22 -70 23 -38 0 34 -11 70 -21 70 -5 0 -6 -15 -2
-32z"/>
<path d="M2509 2716 c14 -15 26 -26 28 -26 9 0 -24 40 -37 45 -8 4 -4 -5 9
-19z"/>
<path d="M2560 2661 c0 -5 5 -13 10 -16 6 -3 10 -2 10 4 0 5 -4 13 -10 16 -5
3 -10 2 -10 -4z"/>
<path d="M2670 2637 c0 -9 4 -18 9 -21 5 -4 8 1 7 9 -3 21 -16 31 -16 12z"/>
<path d="M2845 2621 c-3 -5 -1 -12 5 -16 5 -3 10 1 10 9 0 18 -6 21 -15 7z"/>
<path d="M2808 2613 c7 -3 16 -2 19 1 4 3 -2 6 -13 5 -11 0 -14 -3 -6 -6z"/>
<path d="M2690 2570 c0 -25 -18 -26 -36 -3 -7 10 -15 15 -19 11 -8 -7 42 -58
56 -58 5 0 9 16 9 35 0 19 -2 35 -5 35 -3 0 -5 -9 -5 -20z"/>
<path d="M2823 2580 c-13 -5 -23 -12 -23 -15 0 -9 16 -5 36 10 22 16 19 18
-13 5z"/>
<path d="M4325 2539 c-4 -6 -5 -12 -2 -15 2 -3 7 2 10 11 7 17 1 20 -8 4z"/>
<path d="M2185 2520 c-4 -6 6 -10 22 -10 22 0 25 2 13 10 -19 12 -27 12 -35 0z"/>
<path d="M2766 2474 c-3 -8 3 -25 15 -37 15 -17 19 -18 14 -4 -6 13 -3 16 9
11 24 -9 19 9 -8 28 -21 15 -25 16 -30 2z"/>
<path d="M2318 2433 c7 -3 16 -2 19 1 4 3 -2 6 -13 5 -11 0 -14 -3 -6 -6z"/>
<path d="M2870 2395 c0 -8 4 -15 9 -15 6 0 11 -15 13 -32 2 -27 8 -34 29 -36
23 -3 25 0 25 33 0 19 -1 35 -2 35 -1 0 -18 7 -38 15 -32 14 -36 14 -36 0z"/>
<path d="M3035 2360 c-4 -6 1 -20 11 -31 23 -25 28 -19 10 15 -9 17 -16 23
-21 16z"/>
<path d="M3652 2344 c10 -10 20 -15 24 -12 3 4 -5 12 -18 18 -22 12 -22 12 -6
-6z"/>
<path d="M3788 2313 c6 -2 18 -2 25 0 6 3 1 5 -13 5 -14 0 -19 -2 -12 -5z"/>
<path d="M2990 2241 c0 -21 8 -38 25 -53 14 -12 25 -32 25 -45 0 -43 17 -23
27 32 8 49 8 55 -7 55 -10 0 -29 9 -44 21 l-26 20 0 -30z m60 -41 c0 -5 -4
-10 -10 -10 -5 0 -10 5 -10 10 0 6 5 10 10 10 6 0 10 -4 10 -10z"/>
<path d="M4052 2223 c-7 -2 -17 -14 -23 -25 -11 -20 -11 -20 20 -2 40 24 43
43 3 27z"/>
<path d="M4260 2200 c-14 -27 -10 -32 12 -16 10 8 14 17 8 25 -6 11 -11 8 -20
-9z"/>
<path d="M3200 1793 c8 -2 21 -6 28 -9 10 -3 9 -10 -3 -33 -23 -45 -18 -60 9
-26 24 30 25 30 40 10 20 -26 20 -12 1 24 -15 31 -34 41 -68 40 -14 0 -17 -2
-7 -6z"/>
<path d="M4327 1501 c-4 -17 -3 -21 5 -13 5 5 8 16 6 23 -3 8 -7 3 -11 -10z"/>
<path d="M4330 1362 c0 -5 7 -15 15 -22 8 -7 15 -8 15 -2 0 5 -7 15 -15 22 -8
7 -15 8 -15 2z"/>
<path d="M3550 139 c0 -5 5 -7 10 -4 6 3 10 8 10 11 0 2 -4 4 -10 4 -5 0 -10
-5 -10 -11z"/>
</g>
</svg>
